<?xml version="1.0" encoding="UTF-8"?>
<!-- Generator: Adobe Illustrator 24.0.2, SVG Export Plug-In . SVG Version: 6.00 Build 0)  -->
<svg version="1.1" id="Capa_1" xmlns="http://www.w3.org/2000/svg" xmlns:xlink="http://www.w3.org/1999/xlink" x="0px" y="0px" viewBox="0 0 170 68" style="enable-background:new 0 0 170 68;" xml:space="preserve">
<style type="text/css">
	.st0{fill:none;}
	.st1{clip-path:url(#SVGID_2_);fill-rule:evenodd;clip-rule:evenodd;fill:#9D2C53;}
</style>
<rect x="-11.49" y="-31.69" class="st0" width="183.49" height="131.5"/>
<g>
	<g>
		<defs>
			<rect id="SVGID_1_" x="-15" y="-37.67" width="200" height="143.33"/>
		</defs>
		<clipPath id="SVGID_2_">
			<use xlink:href="#SVGID_1_" style="overflow:visible;"/>
		</clipPath>
		<path class="st1" d="M55.97,60.79v-2.82h0.98c0.37,0,0.61,0.01,0.73,0.05c0.17,0.05,0.32,0.14,0.44,0.3    c0.12,0.15,0.18,0.35,0.18,0.59c0,0.19-0.03,0.34-0.1,0.47c-0.07,0.13-0.15,0.23-0.26,0.3c-0.07,0.05-0.15,0.09-0.22,0.12    l0.67,1.01h-0.68l-0.62-0.94c-0.03,0-0.06,0-0.09,0h-0.4v0.94H55.97z M57.17,57.01c1.31,0,2.37,1.06,2.37,2.37    c0,1.31-1.06,2.37-2.37,2.37c-1.31,0-2.37-1.06-2.37-2.37C54.8,58.08,55.86,57.01,57.17,57.01z M57.17,56.42    c1.64,0,2.96,1.33,2.96,2.96c0,1.64-1.33,2.96-2.96,2.96s-2.96-1.33-2.96-2.96C54.21,57.75,55.54,56.42,57.17,56.42z M56.58,58.49    v0.86h0.33c0.24,0,0.4-0.02,0.48-0.05c0.08-0.03,0.14-0.08,0.19-0.15c0.05-0.07,0.07-0.15,0.07-0.24c0-0.11-0.03-0.2-0.1-0.27    c-0.06-0.07-0.15-0.12-0.25-0.14c-0.07-0.01-0.22-0.02-0.44-0.02H56.58z M33.58,25.97c0.57,4.28,4.75,6.19,6.91,6.26    c0.23-0.01,0.47-0.03,0.69-0.05c0.81-0.1,1.55-0.31,2.23-0.62c1.73-0.81,2.94-2.28,3.12-4.1v-0.96v-0.01    c-0.5-0.82-1.76-1.46-3.12-1.54c-0.64-0.04-1.3,0.04-1.93,0.29c-0.1,0.05-0.19,0.12-0.3,0.18c-2.03,1.28-4.05,1.91-5.69,0.04    c-0.61-0.73-1.34-2.38-0.64-4.23c0.54,0.09,1.86-0.35,2.09-1.04c-0.55-0.56-1.34-0.3-1.9,0.17c0.06-0.56-0.49-2.04-1.13-1.72    c-0.14,0.69,0.09,1.75,0.35,2.54C33.26,23.6,33.58,25.97,33.58,25.97z M43.61,16.62c-0.24,0.01-0.47,0.03-0.7,0.05    c-0.79,0.1-1.55,0.31-2.21,0.63c-1.74,0.81-2.95,2.28-3.14,4.1v0.96c0,0,0,0.01,0.02,0.01c0.49,0.82,1.74,1.46,3.12,1.54    c0.64,0.04,1.3-0.04,1.93-0.27c0.09-0.06,0.2-0.13,0.29-0.19c2.03-1.27,4.05-1.91,5.69-0.04c0.61,0.73,1.34,2.38,0.65,4.23    c-0.56-0.09-1.87,0.35-2.11,1.06c0.56,0.54,1.34,0.28,1.9-0.18c-0.07,0.56,0.49,2.04,1.13,1.72c0.16-0.69-0.08-1.74-0.35-2.54    c1.09-1.97,0.72-4.8,0.72-4.8C49.95,18.59,45.76,16.68,43.61,16.62z M29.89,12.43c-0.51,0.01-1.03,0.04-1.53,0.09l-0.57,5.82    l-0.29-4.57l-3.13,3.64h-0.99v-3.64l-3.64,3.75l-0.27-1.93l-3.74,3.16h14.41L29.89,12.43z M23.79,51.02v3.54    c4.1-0.21,7.01-4.21,6.39-8.79C28.72,44.29,28.28,50.89,23.79,51.02z M24.39,43.41c-0.36,0.62-0.59,1.32-0.6,2.08v4.45    c1.65-0.2,3.58-0.65,3.71-4.06v-4.65c-0.76,0.03-1.62,0.46-2.31,1.15c-0.11-0.33-0.44-0.58-0.84-0.58c-0.38,0-0.7,0.22-0.82,0.52    c-0.12-0.31-0.44-0.52-0.82-0.52c-0.4,0-0.73,0.26-0.83,0.6c-0.33-0.34-0.7-0.61-1.09-0.81c0.09,0.04,0.18,0.06,0.27,0.06    c0.43,0,0.77-0.33,0.78-0.79c0.01,0.45,0.4,0.79,0.86,0.79c0.38,0,0.7-0.21,0.82-0.52c0.12,0.31,0.44,0.52,0.82,0.52    c0.35,0,0.65-0.18,0.79-0.46c0.12,0.28,0.39,0.46,0.7,0.46c0.42,0,0.76-0.35,0.76-0.81c0-0.14-0.04-0.27-0.1-0.39v-1.89    c-0.03-0.16-0.13-0.24-0.26-0.29L25.8,38.2c-0.28,0.08-0.46,0.3-0.59,0.61c-0.06-0.39-0.42-0.68-0.86-0.68    c-0.38,0-0.7,0.22-0.82,0.52c-0.12-0.31-0.44-0.52-0.82-0.52c-0.48,0-0.86,0.36-0.86,0.81c0,0.46,0.39,0.81,0.86,0.81    c0.38,0,0.7-0.21,0.82-0.52c0.12,0.31,0.44,0.52,0.82,0.52c0.34,0,0.63-0.18,0.78-0.43c0.04,0.32,0.16,0.59,0.39,0.8    c-0.16,0.08-0.3,0.22-0.38,0.39c-0.14-0.27-0.44-0.46-0.79-0.46c-0.38,0-0.7,0.22-0.82,0.52c-0.12-0.3-0.44-0.52-0.82-0.52    c-0.47,0-0.85,0.35-0.86,0.78c-0.01-0.31-0.19-0.58-0.45-0.71c0.27-0.26,0.39-0.59,0.39-0.99c-0.13-0.46-0.32-0.8-0.68-0.91    l-0.45,0.06c-0.13,0.04-0.23,0.13-0.26,0.29v1.89c-0.06,0.12-0.1,0.25-0.1,0.39c0,0.33,0.18,0.6,0.43,0.73    c-0.4-0.2-0.81-0.32-1.19-0.34v4.65c0.13,3.41,2.06,3.86,3.71,4.06v-4.45c-0.01-0.75-0.24-1.46-0.6-2.08c0.02,0,0.04,0,0.05,0    c0.38,0,0.7-0.21,0.82-0.52c0.12,0.31,0.44,0.52,0.82,0.52C24.36,43.41,24.37,43.41,24.39,43.41z M22.71,37.83    c0.38,0,0.7-0.21,0.82-0.52c0.12,0.31,0.44,0.52,0.82,0.52c0.4,0,0.73-0.23,0.84-0.57c0.09,0.64,0.56,1.03,1.15,0.98    c0.06-0.68-0.1-1.51-0.59-2.07c-0.31,0.14-0.49,0.37-0.55,0.66c-0.1-0.35-0.44-0.61-0.85-0.61c-0.38,0-0.7,0.22-0.82,0.52    c-0.12-0.31-0.44-0.52-0.82-0.52c-0.48,0-0.86,0.36-0.86,0.8C21.85,37.49,22.23,37.83,22.71,37.83z M21.76,37.04    c0-0.39-0.19-0.71-0.57-0.88c-0.49,0.56-0.65,1.39-0.59,2.07C21.24,38.29,21.76,37.81,21.76,37.04z M16.87,45.77    c-0.62,4.58,2.29,8.58,6.39,8.79v-3.54C18.77,50.89,18.32,44.29,16.87,45.77z M21.87,19.46v13.39h2.46l-1.78-13.39H21.87z     M30.56,32.85v-0.4l-5.74-12.99h-0.66l4.49,13.39H30.56z M26.61,19.46l3.95,6.66v-1.9l-3.31-4.77H26.61z M30.56,20.77v-1.31h-1.54    L30.56,20.77z M18.14,32.85l2.19-13.39h-0.64l-3.51,13.39H18.14z M18.2,19.46h-0.56L9.86,32.85h1.91L18.2,19.46z M15.83,19.46    l-4.98,6c-0.48,1.13-0.76,2.17-1,3.03l6.56-9.03H15.83z M31.67,4c-16.57,0-30,13.43-30,30c0,16.57,13.43,30,30,30    c16.57,0,30-13.43,30-30C61.67,17.43,48.24,4,31.67,4z M50.56,15.52c0.09,0.01,0.17-0.02,0.25-0.1c0.08-0.09,0.12-0.18,0.11-0.28    c-0.01-0.1-0.07-0.2-0.18-0.31l-0.11-0.11l-0.49,0.49l0.11,0.11C50.37,15.44,50.47,15.51,50.56,15.52z M43.83,9.02l-0.67,0.63    l0.57,0.28L43.83,9.02z M51.26,14.64c0.09,0.01,0.17-0.02,0.24-0.09c0.07-0.07,0.1-0.15,0.08-0.23c-0.01-0.08-0.07-0.17-0.17-0.27    L51.37,14l-0.43,0.43l0.04,0.04C51.08,14.57,51.18,14.63,51.26,14.64z M36.64,6.66l-0.47,0.79l0.63,0.12L36.64,6.66z M45.78,38.81    c-3,0.06-3.42-2.91-6.22-2.61c-2.62-0.03-3.56,2.91-6.69,2.24v1.74c3.84,0.61,4.07-2.21,6.69-2.24c2.47-0.05,2.64,2.84,6.36,2.62    c3.61-0.3,3.93-3.2,7.8-2.48c0.09-0.53,0.18-1.07,0.23-1.62C50,35.08,48.93,38.84,45.78,38.81z M45.78,42.31    c-3,0.08-3.42-2.9-6.22-2.59c-2.62-0.03-3.56,2.9-6.69,2.24v1.72c3.84,0.63,4.07-2.21,6.69-2.24c2.47-0.03,2.64,2.84,6.36,2.64    c3.6-0.32,3.8-3.04,6.92-2.64c0.18-0.52,0.34-1.05,0.49-1.59C49.82,38.81,48.8,42.34,45.78,42.31z M45.78,46.03    c-3,0.08-3.53-2.94-6.32-2.63c-2.64-0.03-3.48,2.7-6.6,2.02v1.72c3.83,0.63,3.97-1.99,6.6-2.02c2.45-0.03,2.82,2.82,6.18,2.68    c3.41-0.26,3.89-2.06,5.38-2.42c0.3-0.51,0.58-1.02,0.84-1.55C49.43,43.4,48.15,45.99,45.78,46.03z M39.46,47.02    c-2.64-0.03-3.48,2.72-6.6,2.04v1.72c3.83,0.64,3.97-1.99,6.6-2.02c2.45-0.05,2.82,2.82,6.18,2.7c0.06,0,0.12,0,0.18,0    c0.86-0.7,1.67-1.47,2.42-2.29c-0.6,0.38-1.42,0.69-2.53,0.73C42.7,49.97,42.25,46.71,39.46,47.02z M32.86,52.55v1.74    c3.81,0.64,3.74-1.87,6.35-1.9c1.31,0,1.98,0.82,2.84,1.55c0.54-0.28,1.07-0.58,1.58-0.91c-1.54-0.78-2.23-2.33-4.32-2.26    C36.69,50.72,35.97,53.24,32.86,52.55z M32.86,55.9v0.53c2.77-0.14,5.41-0.78,7.82-1.84c-0.31-0.27-0.73-0.48-1.36-0.48    C36.69,54.08,35.97,56.59,32.86,55.9z M4.62,27.18c-0.12-0.03-0.21-0.01-0.29,0.05c-0.07,0.06-0.13,0.16-0.17,0.31l-0.03,0.13    l0.71,0.17l0.03-0.14c0.03-0.14,0.03-0.26-0.01-0.35C4.81,27.27,4.73,27.21,4.62,27.18z M54.7,19.21    c0.12,0.05,0.25,0.03,0.37-0.05c0.12-0.08,0.18-0.17,0.19-0.29c0-0.11-0.05-0.25-0.15-0.41L55,18.3l-0.72,0.48l0.06,0.1    C54.46,19.04,54.58,19.16,54.7,19.21z M31.61,6.2l-0.34,0.86l0.64,0.01L31.61,6.2z M58.69,26.15L57,26.62l0.09,0.34    c0.08,0.28,0.2,0.47,0.37,0.56c0.17,0.09,0.4,0.1,0.7,0.02c0.27-0.07,0.46-0.2,0.56-0.39c0.11-0.19,0.13-0.41,0.06-0.67    L58.69,26.15z M57.47,23.6l-0.92,0.03l0.24,0.59L57.47,23.6z M5.67,25.29c0.11,0.04,0.21,0.06,0.32,0.06    c0.1,0,0.21-0.02,0.31-0.06c0.11-0.05,0.21-0.11,0.29-0.19c0.08-0.08,0.14-0.17,0.18-0.27c0.08-0.22,0.07-0.43-0.03-0.64    c-0.1-0.21-0.27-0.35-0.5-0.44c-0.21-0.08-0.42-0.07-0.63,0.02c-0.21,0.09-0.35,0.24-0.43,0.45c-0.08,0.22-0.07,0.43,0.02,0.64    C5.3,25.07,5.46,25.21,5.67,25.29z M11.19,15.07l0.41,0.82l0.44-0.47L11.19,15.07z M7.36,21.14c-0.02-0.13-0.09-0.23-0.22-0.3    c-0.12-0.06-0.24-0.07-0.34-0.02c-0.1,0.05-0.2,0.16-0.29,0.33l-0.09,0.17l0.76,0.4l0.06-0.1C7.33,21.43,7.37,21.27,7.36,21.14z     M28.38,6.93c0.21-0.02,0.37-0.08,0.46-0.17c0.1-0.09,0.14-0.2,0.13-0.35c-0.01-0.14-0.07-0.24-0.17-0.3    c-0.1-0.06-0.24-0.07-0.44-0.05l-0.19,0.02l0.1,0.86L28.38,6.93z M40.3,60.13l-0.56-0.71l-0.04,0.91L40.3,60.13z M37.15,60.08    c-0.19-0.13-0.39-0.17-0.6-0.13c-0.23,0.04-0.41,0.16-0.53,0.34c-0.13,0.18-0.17,0.39-0.13,0.61c0.02,0.11,0.06,0.21,0.11,0.3    c0.06,0.09,0.13,0.17,0.21,0.23c0.1,0.07,0.2,0.12,0.31,0.15c0.11,0.03,0.22,0.03,0.33,0.01c0.23-0.04,0.4-0.16,0.53-0.35    c0.12-0.19,0.16-0.4,0.12-0.65C37.45,60.38,37.33,60.21,37.15,60.08z M30.61,61.5l0.63,0.02l-0.29-0.86L30.61,61.5z M31.78,11.76    h-0.22V33.9H9.32v0.22h22.24v22.34h0.22V34.12h22.24V33.9H31.78V11.76z M58.26,23.53L58.26,23.53l-2.09,1.95l-0.21-0.52l0.43-0.41    l-0.37-0.92l-0.6,0.02l-0.2-0.5l2.86-0.05L58.26,23.53z M31.67,58.63L31.67,58.63C18.06,58.63,7.04,47.6,7.04,34    c0-13.6,11.03-24.63,24.63-24.63C45.27,9.37,56.3,20.4,56.3,34C56.3,47.6,45.27,58.63,31.67,58.63z M55.42,47.09L55.42,47.09    c-0.87-0.97,0.04-2.58,0.56-3.93C57.14,44.1,56.04,45.93,55.42,47.09z M53.46,50.18L53.46,50.18c-0.73-1.08,0.39-2.55,1.09-3.81    C55.57,47.45,54.23,49.11,53.46,50.18z M51.21,52.96L51.21,52.96c-0.62-1.14,0.65-2.5,1.47-3.68    C53.59,50.45,52.09,51.97,51.21,52.96z M48.55,55.43L48.55,55.43c-0.45-1.22,0.99-2.38,1.97-3.44    C51.26,53.28,49.57,54.58,48.55,55.43z M45.62,57.44L45.62,57.44c-0.27-1.28,1.33-2.21,2.45-3.11    C48.62,55.71,46.75,56.74,45.62,57.44z M17.65,57.44L17.65,57.44c-1.12-0.7-3-1.73-2.46-3.11C16.32,55.23,17.92,56.16,17.65,57.44    z M14.72,55.43L14.72,55.43c-1.01-0.85-2.71-2.14-1.97-3.44C13.73,53.05,15.17,54.21,14.72,55.43z M12.06,52.96L12.06,52.96    c-0.88-0.99-2.38-2.51-1.47-3.68C11.42,50.46,12.68,51.81,12.06,52.96z M9.82,50.18L9.82,50.18c-0.78-1.08-2.11-2.74-1.09-3.81    C9.43,47.63,10.55,49.11,9.82,50.18z M7.85,47.09L7.85,47.09c-0.62-1.17-1.73-3-0.56-3.93C7.81,44.52,8.72,46.13,7.85,47.09z     M56.61,20.06L56.61,20.06l0.72,1.35l-0.41,0.22l-0.24-0.44l-1.94,1.03l-0.24-0.46l1.94-1.03l-0.24-0.45L56.61,20.06z     M55.42,18.15L55.42,18.15c0.11,0.17,0.19,0.3,0.23,0.39c0.04,0.09,0.07,0.17,0.08,0.25c0.02,0.17,0.01,0.32-0.06,0.45    c-0.06,0.14-0.16,0.25-0.31,0.35c-0.17,0.11-0.35,0.16-0.53,0.15c-0.18-0.02-0.35-0.09-0.48-0.24l-0.5,1.13l-0.34-0.52l0.65-1.26    l-1.03,0.68l-0.29-0.44l2.22-1.47L55.42,18.15z M53.33,15.39L53.33,15.39l0.91,1.11l-0.36,0.3l-0.59-0.71l-0.47,0.39l0.59,0.71    l-0.36,0.29l-0.58-0.71l-0.51,0.42l0.59,0.71l-0.36,0.3l-0.92-1.11L53.33,15.39z M51.75,13.71L51.75,13.71    c0.08,0.08,0.15,0.15,0.19,0.21c0.04,0.06,0.07,0.11,0.1,0.16c0.06,0.15,0.08,0.29,0.06,0.42c-0.03,0.14-0.09,0.26-0.2,0.36    c-0.09,0.09-0.18,0.15-0.28,0.18c-0.09,0.03-0.19,0.03-0.29,0c0.07,0.12,0.09,0.25,0.06,0.38c-0.02,0.13-0.09,0.26-0.2,0.36    c-0.09,0.09-0.19,0.15-0.3,0.2c-0.11,0.05-0.22,0.06-0.33,0.06c-0.11-0.01-0.21-0.04-0.3-0.09c-0.09-0.05-0.21-0.14-0.34-0.27    l-0.48-0.47l1.89-1.89L51.75,13.71z M50.32,12.39L50.32,12.39l-1.72,2.04l-0.4-0.34l1.72-2.04L50.32,12.39z M47.88,10.51    L47.88,10.51l0.42,0.3l-1.29,1.78l0.68,0.49l-0.27,0.38l-1.1-0.79L47.88,10.51z M43.97,8.25L43.97,8.25l0.4,0.2l-0.25,2.85    l-0.5-0.25l0.06-0.59l-0.89-0.43l-0.43,0.41l-0.48-0.24L43.97,8.25z M40.94,7L40.94,7l0.48,0.18l-0.76,2.06l0.79,0.29l-0.16,0.44    L40.02,9.5L40.94,7z M36.57,5.88L36.57,5.88l0.44,0.08l0.52,2.81l-0.55-0.1l-0.11-0.59L35.9,7.9l-0.3,0.51l-0.53-0.1L36.57,5.88z     M31.41,5.44L31.41,5.44l0.45,0.01l0.98,2.69l-0.56-0.01l-0.2-0.56l-0.99-0.02L30.87,8.1L30.33,8.1L31.41,5.44z M28.23,5.64    L28.23,5.64c0.2-0.02,0.35-0.03,0.45-0.03c0.1,0,0.19,0.02,0.26,0.04c0.16,0.05,0.29,0.14,0.38,0.26    c0.09,0.11,0.15,0.26,0.17,0.43c0.02,0.2-0.01,0.39-0.11,0.54c-0.1,0.16-0.24,0.26-0.43,0.32l0.78,0.96L29.1,8.23l-0.82-1.16    l0.13,1.23l-0.52,0.06L27.6,5.71L28.23,5.64z M25.04,6.2L25.04,6.2l0.33,1.5c0.05,0.24,0.11,0.39,0.18,0.47    c0.07,0.08,0.17,0.11,0.29,0.08c0.12-0.03,0.19-0.09,0.22-0.19c0.03-0.1,0.02-0.27-0.03-0.51l-0.33-1.5l0.51-0.11l0.37,1.65    c0.04,0.19,0.06,0.32,0.06,0.42c0,0.1-0.02,0.19-0.05,0.27c-0.05,0.14-0.13,0.25-0.24,0.33c-0.1,0.08-0.23,0.14-0.39,0.18    c-0.16,0.04-0.3,0.04-0.43,0.01c-0.13-0.03-0.25-0.1-0.35-0.2c-0.06-0.06-0.11-0.13-0.15-0.21c-0.04-0.08-0.08-0.22-0.12-0.42    l-0.37-1.66L25.04,6.2z M23.38,6.63L23.38,6.63l0.15,0.45l-0.48,0.16l0.69,2.09l-0.5,0.16L22.56,7.4l-0.48,0.15l-0.15-0.44    L23.38,6.63z M20.2,7.8L20.2,7.8l0.87,2.02l0.77-0.33l0.19,0.43l-1.24,0.54l-1.05-2.45L20.2,7.8z M17.42,9.19L17.42,9.19    l0.75,1.35c0.12,0.21,0.22,0.35,0.31,0.4c0.09,0.06,0.19,0.06,0.29,0c0.11-0.06,0.16-0.15,0.16-0.25c0-0.1-0.06-0.26-0.18-0.48    l-0.75-1.35l0.46-0.25l0.82,1.48c0.09,0.16,0.15,0.29,0.18,0.39c0.03,0.09,0.04,0.18,0.03,0.27c-0.01,0.15-0.06,0.27-0.13,0.38    c-0.08,0.11-0.18,0.2-0.33,0.28c-0.15,0.08-0.28,0.12-0.41,0.13c-0.13,0.01-0.26-0.03-0.39-0.09c-0.08-0.04-0.15-0.09-0.21-0.16    c-0.06-0.07-0.14-0.19-0.24-0.36l-0.82-1.48L17.42,9.19z M14.26,11.68L14.26,11.68c0.03-0.18,0.09-0.34,0.18-0.49    c0.09-0.15,0.21-0.27,0.36-0.38c0.24-0.17,0.48-0.26,0.73-0.27c0.25-0.01,0.51,0.06,0.78,0.21l-0.52,0.38    c-0.12-0.04-0.24-0.05-0.35-0.03c-0.12,0.02-0.23,0.07-0.33,0.15c-0.09,0.06-0.16,0.14-0.21,0.23c-0.06,0.09-0.09,0.19-0.1,0.29    c-0.02,0.11-0.01,0.22,0.01,0.33c0.03,0.11,0.07,0.21,0.14,0.3c0.14,0.2,0.33,0.32,0.55,0.36c0.22,0.04,0.43-0.01,0.61-0.14    c0.11-0.08,0.19-0.16,0.24-0.27c0.06-0.1,0.08-0.21,0.08-0.32l0.52-0.37c0.06,0.29,0.04,0.56-0.04,0.79    c-0.09,0.23-0.25,0.43-0.48,0.6c-0.16,0.12-0.34,0.19-0.52,0.23c-0.18,0.04-0.37,0.04-0.57-0.01c-0.17-0.04-0.32-0.1-0.46-0.2    c-0.14-0.09-0.27-0.22-0.38-0.37c-0.11-0.15-0.18-0.31-0.22-0.49C14.23,12.06,14.23,11.88,14.26,11.68z M10.79,14.39L10.79,14.39    l2.65,1.08l-0.38,0.41l-0.55-0.23l-0.68,0.72l0.27,0.53l-0.37,0.4l-1.24-2.58L10.79,14.39z M8.71,16.84L8.71,16.84l1.75,1.33    l0.51-0.67l0.37,0.28l-0.82,1.08L8.4,17.25L8.71,16.84z M6.08,21.02L6.08,21.02c0.09-0.18,0.17-0.31,0.23-0.39    c0.06-0.08,0.12-0.14,0.18-0.19c0.13-0.1,0.28-0.16,0.42-0.17c0.15-0.01,0.3,0.02,0.45,0.1c0.18,0.1,0.31,0.23,0.39,0.39    c0.08,0.17,0.08,0.35,0.03,0.54L9,21.19l-0.29,0.55L7.3,21.78l1.1,0.58l-0.24,0.46l-2.36-1.24L6.08,21.02z M4.69,24.04L4.69,24.04    c0.06-0.17,0.15-0.31,0.28-0.44c0.12-0.13,0.26-0.23,0.43-0.31c0.17-0.08,0.35-0.12,0.53-0.13c0.18-0.01,0.36,0.02,0.53,0.09    c0.18,0.07,0.33,0.16,0.47,0.28c0.13,0.12,0.24,0.26,0.31,0.42c0.08,0.17,0.13,0.35,0.14,0.53c0.01,0.18-0.02,0.36-0.09,0.54    c-0.07,0.19-0.17,0.35-0.29,0.48c-0.12,0.13-0.27,0.23-0.45,0.31c-0.17,0.07-0.34,0.11-0.52,0.11c-0.18,0-0.35-0.03-0.53-0.1    c-0.14-0.05-0.26-0.12-0.37-0.2c-0.11-0.08-0.2-0.18-0.28-0.29c-0.13-0.19-0.22-0.4-0.24-0.62C4.58,24.48,4.6,24.26,4.69,24.04z     M3.71,27.42L3.71,27.42c0.04-0.16,0.08-0.29,0.12-0.38c0.04-0.09,0.09-0.16,0.14-0.21c0.1-0.09,0.21-0.15,0.35-0.18    c0.13-0.03,0.27-0.03,0.4,0c0.25,0.06,0.43,0.19,0.54,0.39c0.11,0.2,0.13,0.44,0.06,0.71l-0.04,0.19l1,0.24L6.14,28.7l-2.59-0.63    L3.71,27.42z M4.97,43.94L4.97,43.94c1.34-0.37,2.12,2.15,2.82,3.18C5.97,47.07,5.37,45.06,4.97,43.94z M6.54,47.44L6.54,47.44    c1.28-0.55,2.39,1.85,3.22,2.78C7.95,50.42,7.08,48.5,6.54,47.44z M8.52,50.56L8.52,50.56c1.21-0.68,2.56,1.59,3.48,2.43    C10.22,53.38,9.17,51.56,8.52,50.56z M10.88,53.56L10.88,53.56c1.11-0.84,2.76,1.22,3.79,1.92    C12.96,56.11,11.66,54.46,10.88,53.56z M17.61,57.49L17.61,57.49c-1.6,0.88-3.13-0.56-4.03-1.34    C14.54,55.15,16.49,56.95,17.61,57.49z M16.56,58.3L16.56,58.3c0.87-1.08,2.97,0.53,4.14,0.97C19.19,60.29,17.53,58.99,16.56,58.3    z M20.73,59.22L20.73,59.22c-1.18-0.59-3.14-1.45-2.72-2.88C19.21,57.14,20.89,57.92,20.73,59.22z M24.18,59.57L24.18,59.57    l-0.45-0.14l0.01-0.02c0.03-0.08,0.02-0.15-0.01-0.22c-0.03-0.07-0.09-0.11-0.16-0.13c-0.08-0.03-0.15-0.02-0.22,0.01    c-0.06,0.03-0.11,0.09-0.14,0.18c-0.01,0.04-0.02,0.07-0.02,0.1c0,0.03,0.01,0.06,0.02,0.09c0.03,0.07,0.12,0.15,0.26,0.24    c0.06,0.04,0.11,0.07,0.14,0.1c0.15,0.11,0.25,0.24,0.3,0.38c0.05,0.13,0.04,0.29-0.01,0.46c-0.08,0.26-0.22,0.44-0.42,0.55    c-0.19,0.11-0.41,0.13-0.65,0.05c-0.23-0.07-0.38-0.21-0.47-0.4c-0.09-0.2-0.1-0.42-0.02-0.67l0.45,0.14l-0.01,0.04    c-0.03,0.11-0.03,0.2,0,0.28c0.03,0.08,0.1,0.14,0.19,0.17c0.1,0.03,0.19,0.03,0.26-0.01c0.08-0.04,0.13-0.11,0.17-0.22    c0.05-0.16-0.03-0.31-0.24-0.46c-0.03-0.02-0.05-0.03-0.06-0.04c-0.18-0.13-0.29-0.26-0.35-0.4c-0.06-0.14-0.06-0.3-0.01-0.47    c0.08-0.24,0.2-0.4,0.38-0.51c0.18-0.1,0.37-0.11,0.59-0.04c0.2,0.06,0.35,0.18,0.43,0.35C24.23,59.14,24.24,59.34,24.18,59.57z     M25.3,61.85L25.3,61.85l-0.5-0.12l0.61-2.57l0.5,0.12L25.3,61.85z M28.66,62.42L28.66,62.42l-0.48-0.07l-0.85-1.87L27.1,62.2    l-0.5-0.07l0.37-2.62l0.48,0.07l0.84,1.83l0.24-1.67l0.5,0.07L28.66,62.42z M31.6,62.57L31.6,62.57l-0.2-0.56l-0.98-0.02    l-0.22,0.55l-0.54-0.01l1.09-2.62l0.45,0.01l0.94,2.67L31.6,62.57z M33.16,62.53L33.16,62.53l-0.19-2.64l0.51-0.04l0.16,2.17    l0.83-0.06l0.03,0.46L33.16,62.53z M38.02,61.05L38.02,61.05c-0.03,0.18-0.1,0.34-0.2,0.49c-0.1,0.16-0.23,0.28-0.38,0.39    c-0.15,0.1-0.32,0.17-0.5,0.2c-0.19,0.04-0.38,0.04-0.55,0c-0.18-0.04-0.34-0.11-0.49-0.23c-0.15-0.1-0.26-0.23-0.36-0.38    c-0.09-0.15-0.15-0.31-0.19-0.5c-0.03-0.14-0.03-0.28-0.02-0.41c0.01-0.13,0.05-0.26,0.1-0.39c0.09-0.21,0.23-0.39,0.4-0.52    c0.17-0.14,0.38-0.23,0.61-0.27c0.17-0.03,0.34-0.03,0.52,0.01c0.17,0.04,0.33,0.11,0.48,0.21c0.15,0.11,0.28,0.23,0.38,0.38    c0.1,0.15,0.16,0.31,0.2,0.49C38.05,60.7,38.05,60.88,38.02,61.05z M40.98,61.02L40.98,61.02l-0.37-0.47l-0.93,0.3l-0.03,0.59    l-0.51,0.16l0.17-2.83l0.43-0.14l1.76,2.21L40.98,61.02z M45.26,56.34L45.26,56.34c0.42,1.43-1.54,2.29-2.72,2.88    C42.39,57.92,44.06,57.14,45.26,56.34z M42.57,59.27L42.57,59.27c1.16-0.44,3.26-2.05,4.14-0.97    C45.74,58.99,44.09,60.29,42.57,59.27z M45.66,57.49L45.66,57.49c1.12-0.54,3.07-2.33,4.04-1.34    C48.8,56.93,47.27,58.37,45.66,57.49z M48.6,55.48L48.6,55.48c1.03-0.7,2.69-2.76,3.79-1.92C51.62,54.46,50.32,56.11,48.6,55.48z     M51.26,53L51.26,53c0.92-0.84,2.27-3.11,3.49-2.43C54.1,51.56,53.05,53.38,51.26,53z M53.51,50.22L53.51,50.22    c0.83-0.93,1.95-3.32,3.22-2.78C56.19,48.5,55.32,50.42,53.51,50.22z M55.48,47.12L55.48,47.12c0.7-1.03,1.48-3.56,2.82-3.18    C57.91,45.06,57.3,47.07,55.48,47.12z M58.82,27.81L58.82,27.81c-0.15,0.11-0.33,0.19-0.54,0.25c-0.23,0.06-0.46,0.08-0.66,0.04    c-0.21-0.04-0.4-0.12-0.56-0.25c-0.1-0.08-0.17-0.17-0.24-0.27c-0.06-0.11-0.12-0.26-0.17-0.46l-0.24-0.87l2.57-0.71l0.24,0.86    c0.06,0.23,0.09,0.43,0.08,0.58c-0.01,0.15-0.05,0.3-0.13,0.45C59.09,27.57,58.97,27.7,58.82,27.81z M40.69,20.39L40.69,20.39    c-0.21,0-0.39-0.18-0.39-0.41c0-0.21,0.18-0.38,0.39-0.38c0.2,0,0.38,0.17,0.38,0.38C41.07,20.21,40.89,20.39,40.69,20.39z     M43.8,21.73L43.8,21.73c-0.14,0.05-0.26,0.05-0.4,0.12c0.23-1.24,0.04-2.21-0.5-2.98c-0.26-0.38-0.58-0.7-0.99-0.99    c0.12-0.04,0.2-0.14,0.31-0.21c0.25,0.18,0.47,0.39,0.68,0.61C43.65,19.06,44.13,20.12,43.8,21.73z M43.4,28.46L43.4,28.46    c0.19,0,0.38,0.18,0.38,0.42c0,0.21-0.18,0.38-0.38,0.38c-0.21,0-0.38-0.17-0.38-0.38C43.02,28.64,43.19,28.46,43.4,28.46z     M40.28,27.12L40.28,27.12c0.14-0.05,0.26-0.05,0.4-0.12c-0.23,1.24-0.04,2.21,0.5,2.98c0.26,0.37,0.6,0.7,1,0.99    c-0.12,0.04-0.21,0.16-0.33,0.21c-0.23-0.18-0.47-0.39-0.68-0.61C40.44,29.78,39.95,28.74,40.28,27.12z M93.43,56.05    c-0.63,0-1.18,0.31-1.67,0.93c-0.49,0.62-0.73,1.54-0.73,2.74c0,1.16,0.27,2.08,0.81,2.76c0.54,0.68,1.21,1.02,2.01,1.02    c0.68,0,1.24-0.32,1.68-0.96c0.44-0.64,0.65-1.5,0.65-2.59c0-1.24-0.26-2.2-0.79-2.88C94.87,56.39,94.21,56.05,93.43,56.05z     M97.92,59.71c0,1.27-0.39,2.31-1.18,3.1C95.96,63.6,94.91,64,93.6,64c-1.23,0-2.25-0.37-3.07-1.11    c-0.82-0.74-1.23-1.72-1.23-2.94c0-1.26,0.41-2.31,1.22-3.15c0.81-0.85,1.83-1.27,3.07-1.27c1.2,0,2.22,0.39,3.07,1.17    C97.5,57.48,97.92,58.48,97.92,59.71z M151.24,64l-0.04-0.03v-0.3c0-0.08,0.04-0.12,0.11-0.12h0.18c0.26,0,0.45-0.04,0.56-0.13    c0.11-0.09,0.17-0.24,0.17-0.44v-6.44c0-0.21-0.05-0.36-0.17-0.44c-0.11-0.09-0.3-0.13-0.57-0.13h-0.18    c-0.07,0-0.11-0.04-0.11-0.11v-0.31l0.04-0.03h6.13c0.05,0.74,0.14,1.45,0.27,2.13l-0.52,0.11c-0.3-1.09-0.77-1.64-1.4-1.64H154    c-0.12,0-0.18,0.13-0.18,0.38v2.7h1.49c0.08,0,0.14-0.02,0.2-0.06c0.05-0.04,0.1-0.11,0.13-0.22c0.04-0.11,0.06-0.2,0.07-0.28    c0.01-0.07,0.03-0.2,0.06-0.38c0-0.04,0.02-0.07,0.06-0.1c0.04-0.03,0.09-0.05,0.16-0.05h0.28l0.08,0.13    c-0.06,0.49-0.09,0.9-0.09,1.22c0,0.3,0.03,0.71,0.09,1.22l-0.08,0.12h-0.28c-0.14,0-0.21-0.04-0.21-0.13    c-0.03-0.17-0.05-0.3-0.06-0.38c-0.01-0.08-0.04-0.17-0.07-0.28c-0.04-0.1-0.08-0.18-0.13-0.22c-0.05-0.04-0.12-0.06-0.2-0.06    h-1.49v3.25c0,0.25,0.06,0.38,0.18,0.39h2.02c0.34,0,0.63-0.16,0.87-0.49c0.24-0.33,0.42-0.75,0.55-1.26l0.56,0.14    c-0.14,0.75-0.26,1.49-0.35,2.22H151.24z M127.52,64l-0.04-0.03v-0.3c0-0.08,0.04-0.12,0.11-0.12h0.18c0.26,0,0.45-0.04,0.56-0.13    c0.11-0.09,0.17-0.24,0.17-0.44v-6.44c0-0.21-0.06-0.36-0.17-0.44c-0.11-0.09-0.3-0.13-0.57-0.13h-0.18    c-0.07,0-0.11-0.04-0.11-0.11v-0.31l0.04-0.03h6.13c0.05,0.74,0.14,1.45,0.27,2.13l-0.52,0.11c-0.3-1.09-0.77-1.64-1.4-1.64h-1.72    c-0.12,0-0.18,0.13-0.18,0.38v2.7h1.49c0.08,0,0.14-0.02,0.2-0.06c0.05-0.04,0.1-0.11,0.13-0.22c0.04-0.11,0.06-0.2,0.07-0.28    c0.01-0.07,0.03-0.2,0.06-0.38c0-0.03,0.02-0.07,0.06-0.1c0.04-0.03,0.09-0.05,0.16-0.05h0.28l0.08,0.13    c-0.06,0.49-0.09,0.9-0.09,1.22c0,0.3,0.03,0.71,0.09,1.22l-0.08,0.12h-0.28c-0.14,0-0.21-0.04-0.21-0.13    c-0.03-0.18-0.05-0.3-0.06-0.38c-0.01-0.08-0.04-0.17-0.07-0.28c-0.03-0.1-0.08-0.18-0.13-0.22c-0.05-0.04-0.12-0.06-0.2-0.06    h-1.49v3.25c0,0.25,0.06,0.38,0.18,0.38h2.02c0.34,0,0.63-0.16,0.87-0.49c0.24-0.33,0.42-0.75,0.55-1.26l0.56,0.14    c-0.14,0.75-0.26,1.49-0.35,2.22H127.52z M117.13,63c0,0.38,0.24,0.58,0.71,0.58h0.19c0.07,0,0.1,0.04,0.1,0.12V64c0,0,0,0,0,0    h-3.61l0,0v-0.3c0-0.08,0.03-0.12,0.1-0.12h0.19c0.26,0,0.44-0.04,0.56-0.13c0.11-0.09,0.17-0.23,0.17-0.45v-6.47    c0-0.21-0.06-0.36-0.16-0.45c-0.11-0.09-0.3-0.13-0.56-0.13h-0.19c-0.07,0-0.1-0.04-0.1-0.11v-0.31l0.01-0.01h3.58l0.01,0.01v0.31    c0,0.07-0.03,0.11-0.1,0.11h-0.19c-0.48,0-0.71,0.19-0.71,0.58V63z M111.01,64c-0.72,0-1.37-0.12-1.95-0.35    c-0.58-0.23-1.05-0.55-1.4-0.95c-0.35-0.4-0.63-0.83-0.81-1.31c-0.19-0.48-0.28-0.99-0.28-1.51c0-1.24,0.44-2.27,1.3-3.1    c0.87-0.84,1.92-1.25,3.15-1.25c0.5,0,0.94,0.05,1.32,0.14c0.37,0.1,0.68,0.19,0.92,0.29c0.24,0.09,0.44,0.14,0.61,0.14    c0.04,0.65,0.14,1.36,0.28,2.13l-0.49,0.1c-0.24-0.72-0.56-1.28-0.94-1.68c-0.38-0.4-0.95-0.59-1.71-0.59    c-0.72,0-1.35,0.3-1.9,0.92c-0.55,0.61-0.82,1.5-0.82,2.66c0,1,0.24,1.88,0.71,2.65c0.47,0.77,1.13,1.15,1.98,1.15    c1.1,0,2.1-0.5,3.02-1.51l0.39,0.3C113.49,63.41,112.36,64,111.01,64z M102.82,64c-0.72,0-1.37-0.12-1.95-0.35    c-0.58-0.23-1.05-0.55-1.4-0.95c-0.35-0.4-0.63-0.83-0.81-1.31c-0.19-0.48-0.28-0.99-0.28-1.51c0-1.24,0.44-2.27,1.3-3.1    c0.87-0.84,1.92-1.25,3.15-1.25c0.5,0,0.94,0.05,1.32,0.14c0.37,0.1,0.68,0.19,0.92,0.29c0.24,0.09,0.44,0.14,0.61,0.14    c0.04,0.65,0.14,1.36,0.28,2.13l-0.49,0.1c-0.24-0.72-0.56-1.28-0.94-1.68c-0.38-0.4-0.95-0.59-1.71-0.59    c-0.72,0-1.35,0.3-1.9,0.92c-0.55,0.61-0.82,1.5-0.82,2.66c0,1,0.24,1.88,0.71,2.65c0.47,0.77,1.13,1.15,1.98,1.15    c1.1,0,2.1-0.5,3.02-1.51l0.39,0.3C105.29,63.41,104.16,64,102.82,64z M141.18,56.54c0-0.21-0.05-0.36-0.16-0.44    c-0.11-0.09-0.29-0.13-0.54-0.13h-0.19c-0.08,0-0.11-0.04-0.11-0.11v-0.32l0.02-0.01h2.8l0.03,0.01v0.32    c0,0.07-0.04,0.11-0.1,0.11h-0.19c-0.48,0-0.72,0.19-0.72,0.58v6.94v0.09c0,0.37-0.07,0.43-0.5,0.43c-0.51,0-0.58-0.16-0.79-0.43    l-4.42-5.73V63c0,0.38,0.24,0.58,0.72,0.58h0.19c0.07,0,0.1,0.04,0.1,0.12V64l0,0h-2.94l0,0v-0.3c0-0.08,0.03-0.12,0.11-0.12h0.18    c0.54,0,0.82-0.19,0.82-0.58v-6.35c-0.11-0.15-0.19-0.26-0.25-0.34c-0.06-0.08-0.16-0.16-0.28-0.23    c-0.12-0.08-0.25-0.12-0.38-0.12c-0.18,0-0.26-0.05-0.26-0.15v-0.26l0.04-0.04h1.89l4.93,6.28V56.54z M150.75,55.52    c0.06,0.57,0.15,1.12,0.27,1.67l-0.52,0.06c-0.13-0.51-0.25-0.82-0.39-0.94c-0.14-0.12-0.39-0.18-0.77-0.18h-0.7    c-0.23,0-0.4,0.04-0.49,0.12c-0.09,0.08-0.14,0.22-0.14,0.43V63c0,0.2,0.05,0.35,0.16,0.44c0.11,0.09,0.3,0.14,0.56,0.14h0.34    c0.07,0,0.1,0.04,0.11,0.12V64l0,0h-3.92l0,0v-0.3c0-0.08,0.04-0.12,0.11-0.12h0.33c0.48,0,0.72-0.19,0.72-0.58v-6.35    c0-0.19-0.05-0.33-0.14-0.4c-0.09-0.07-0.26-0.11-0.5-0.11h-0.69c-0.38,0-0.63,0.06-0.77,0.18c-0.14,0.12-0.27,0.43-0.4,0.94    l-0.51-0.06c0.12-0.55,0.2-1.1,0.26-1.67H150.75z M118.61,64l-0.03-0.03v-0.3c0-0.08,0.03-0.12,0.1-0.12h0.19    c0.26,0,0.44-0.04,0.56-0.13c0.11-0.09,0.17-0.24,0.17-0.44v-6.44c0-0.21-0.05-0.36-0.16-0.44c-0.11-0.09-0.3-0.13-0.56-0.13    h-0.19c-0.07,0-0.1-0.04-0.1-0.11v-0.31l0.03-0.03h3.88c1.32,0,2.44,0.43,3.36,1.29c0.92,0.86,1.38,1.9,1.38,3.13    c0,0.62-0.09,1.17-0.28,1.66c-0.19,0.49-0.43,0.88-0.74,1.17c-0.3,0.29-0.66,0.54-1.06,0.73c-0.4,0.19-0.8,0.32-1.2,0.4    c-0.39,0.07-0.8,0.1-1.22,0.1H118.61z M121.19,63c0,0.19,0.07,0.31,0.19,0.37c0.13,0.06,0.45,0.09,0.95,0.09    c0.45,0,0.86-0.05,1.21-0.14c0.36-0.1,0.69-0.26,1-0.48c0.31-0.23,0.54-0.56,0.71-0.99c0.16-0.43,0.25-0.96,0.25-1.58    c0-0.41-0.04-0.81-0.11-1.19c-0.07-0.39-0.2-0.77-0.37-1.14c-0.18-0.37-0.39-0.69-0.66-0.97c-0.26-0.27-0.59-0.49-1-0.66    c-0.4-0.17-0.86-0.25-1.35-0.25c-0.28,0-0.49,0.03-0.62,0.09c-0.13,0.06-0.19,0.18-0.19,0.37V63z M154.78,39.55    c0.01-0.01,0.03-0.01,0.05-0.01h0.19c0.26,0,0.44-0.04,0.56-0.13c0.11-0.09,0.17-0.24,0.17-0.44v-6.44c0-0.21-0.06-0.36-0.16-0.44    c-0.11-0.09-0.29-0.13-0.56-0.13h-0.19c-0.07,0-0.1-0.04-0.1-0.11v-0.31l0.03-0.03h3.88c1.32,0,2.44,0.43,3.36,1.29    c0.92,0.86,1.38,1.91,1.38,3.13c0,0.62-0.09,1.17-0.28,1.66c-0.19,0.49-0.43,0.88-0.74,1.17c-0.3,0.29-0.66,0.53-1.06,0.73    c-0.4,0.19-0.8,0.32-1.2,0.4c-0.39,0.07-0.8,0.1-1.22,0.1h-3.95c0,0-0.01,0-0.01,0h-3.73c-0.04,0-0.05-0.01-0.05-0.05v-0.25    c0-0.09,0.11-0.13,0.35-0.13h0.35c0.22,0,0.33-0.11,0.33-0.34c0-0.1-0.01-0.16-0.02-0.19l-0.81-2.22h-2.42    c-0.14,0-0.23,0.01-0.28,0.04c-0.05,0.02-0.09,0.07-0.12,0.15l-0.75,1.95c-0.08,0.21-0.12,0.34-0.04,0.45    c0.08,0.1,0.3,0.16,0.66,0.16c0.18,0,0.28,0.04,0.28,0.13v0.26c0,0.02-0.01,0.04-0.05,0.04h-2.73c-0.02,0-0.03-0.01-0.03-0.03    v-0.27c0-0.09,0.09-0.13,0.26-0.13c0.15,0,0.31-0.06,0.47-0.2c0.17-0.13,0.3-0.32,0.4-0.56L149.8,32    c0.13-0.32,0.31-0.49,0.65-0.49c0.35,0,0.54,0.12,0.67,0.47l2.57,6.82c0.1,0.26,0.2,0.45,0.31,0.58c0.1,0.12,0.23,0.18,0.39,0.18    h0.37H154.78z M114.06,39.99l-0.04-0.03v-0.3c0-0.08,0.04-0.12,0.11-0.12h0.18c0.26,0,0.45-0.04,0.56-0.13    c0.11-0.09,0.17-0.24,0.17-0.44v-6.44c0-0.21-0.05-0.36-0.17-0.44c-0.11-0.09-0.3-0.13-0.57-0.13h-0.18    c-0.07,0-0.1-0.04-0.11-0.11v-0.31l0.04-0.03h6.13c0.05,0.74,0.14,1.45,0.27,2.13l-0.53,0.11c-0.3-1.09-0.77-1.64-1.39-1.64h-1.72    c-0.12,0-0.18,0.13-0.18,0.39v2.7h1.49c0.08,0,0.14-0.02,0.2-0.06c0.05-0.04,0.1-0.11,0.13-0.22c0.04-0.11,0.06-0.2,0.07-0.28    c0.01-0.07,0.03-0.2,0.06-0.38c0-0.04,0.02-0.07,0.06-0.1c0.04-0.03,0.09-0.05,0.16-0.05h0.28l0.08,0.13    c-0.06,0.49-0.09,0.9-0.09,1.22c0,0.3,0.03,0.71,0.09,1.22l-0.08,0.12h-0.28c-0.14,0-0.21-0.04-0.21-0.13    c-0.03-0.18-0.05-0.3-0.06-0.38c-0.01-0.08-0.04-0.17-0.07-0.28c-0.04-0.1-0.08-0.18-0.13-0.22c-0.05-0.04-0.12-0.06-0.2-0.06    h-1.49V39c0,0.25,0.06,0.38,0.18,0.39h2.02c0.34,0,0.63-0.16,0.87-0.49c0.24-0.33,0.42-0.75,0.55-1.26l0.56,0.14    c-0.14,0.75-0.26,1.49-0.35,2.22H114.06z M90.69,32.52c0-0.21-0.06-0.35-0.17-0.44c-0.11-0.09-0.3-0.13-0.55-0.13h-0.18    c-0.08,0-0.12-0.04-0.12-0.11v-0.32l0.02-0.01h2.93l0.03,0.01v0.32c0,0.07-0.03,0.11-0.1,0.11h-0.19c-0.48,0-0.72,0.19-0.71,0.57    v3.55c0,0.5-0.02,0.93-0.07,1.3c-0.05,0.36-0.15,0.72-0.3,1.07c-0.15,0.35-0.35,0.63-0.59,0.85c-0.25,0.22-0.57,0.39-0.98,0.52    c-0.41,0.13-0.91,0.19-1.47,0.19c-0.35,0-0.7-0.05-1.05-0.16c-0.35-0.11-0.7-0.27-1.05-0.5c-0.35-0.23-0.63-0.56-0.84-1    c-0.22-0.44-0.33-0.94-0.33-1.52v-4.3c0-0.21-0.05-0.35-0.17-0.44c-0.11-0.09-0.29-0.13-0.55-0.13h-0.18    c-0.08,0-0.12-0.04-0.12-0.11v-0.32l0.03-0.01h3.57l0.04,0.01v0.32c0,0.07-0.04,0.11-0.11,0.11h-0.18c-0.48,0-0.72,0.19-0.72,0.57    v3.87c0,0.39,0.01,0.69,0.02,0.91c0.01,0.22,0.07,0.49,0.16,0.8c0.1,0.31,0.24,0.56,0.42,0.75c0.45,0.42,0.89,0.63,1.35,0.64    c0.37,0,0.69-0.07,0.97-0.21c0.28-0.14,0.49-0.31,0.64-0.51c0.15-0.2,0.27-0.45,0.37-0.76c0.09-0.3,0.15-0.59,0.17-0.85    c0.03-0.27,0.04-0.55,0.04-0.87V32.52z M99.69,32.53c0-0.21-0.05-0.36-0.16-0.44C99.43,32,99.25,31.95,99,31.95h-0.19    c-0.08,0-0.11-0.04-0.11-0.11v-0.32l0.02-0.01h2.8l0.03,0.01v0.32c0,0.07-0.04,0.11-0.1,0.11h-0.19c-0.48,0-0.72,0.19-0.72,0.58    v7.13c0,0.32-0.16,0.32-0.49,0.32c-0.23,0-0.44,0.04-0.62-0.2l-4.59-5.96v5.17c0,0.38,0.24,0.58,0.72,0.58h0.19    c0.07,0,0.1,0.04,0.1,0.12v0.3l0,0c-0.98,0-1.96,0-2.94,0l0,0v-0.3c0-0.08,0.04-0.12,0.11-0.12h0.18c0.54,0,0.82-0.19,0.82-0.58    v-6.35c-0.11-0.15-0.19-0.26-0.25-0.34c-0.06-0.08-0.16-0.16-0.28-0.23c-0.12-0.08-0.25-0.12-0.38-0.12    c-0.17,0-0.26-0.05-0.26-0.15v-0.26l0.04-0.04h1.89l4.93,6.28V32.53z M104.41,38.99c0,0.38,0.24,0.58,0.71,0.58h0.19    c0.07,0,0.1,0.04,0.1,0.12v0.3l0,0c-1.2,0-2.4,0-3.61,0l0,0v-0.3c0-0.08,0.04-0.12,0.1-0.12h0.19c0.26,0,0.44-0.04,0.56-0.13    c0.11-0.09,0.17-0.23,0.17-0.45v-6.47c0-0.21-0.06-0.36-0.16-0.45c-0.11-0.09-0.29-0.13-0.56-0.13h-0.19    c-0.07,0-0.1-0.04-0.1-0.11v-0.31l0.01-0.01h3.58l0.01,0.01v0.31c0,0.07-0.03,0.11-0.1,0.11h-0.19c-0.48,0-0.71,0.19-0.71,0.58    V38.99z M111.16,31.95c-0.07,0-0.1-0.04-0.1-0.11v-0.32l0.02-0.01h2.82c0.01,0,0.02,0,0.02,0.01v0.32c0,0.07-0.04,0.11-0.11,0.11    c-0.35,0-0.58,0.05-0.7,0.14c-0.12,0.1-0.25,0.32-0.39,0.69l-2.53,6.77c-0.21,0.55-0.88,0.58-1.07,0.04l-2.41-6.87    c-0.11-0.32-0.24-0.52-0.37-0.62c-0.13-0.1-0.36-0.15-0.68-0.15c-0.07,0-0.1-0.04-0.1-0.11v-0.32l0.03-0.01h3.68l0.03,0.01v0.32    c0,0.07-0.03,0.11-0.11,0.11c-0.42,0-0.7,0.04-0.83,0.12c-0.14,0.08-0.17,0.22-0.1,0.42l1.64,4.66l0.14,0.4l0.16-0.36l1.7-4.58    c0.11-0.28,0.13-0.46,0.03-0.54C111.83,32,111.57,31.95,111.16,31.95z M127.56,33.74c0,0.62-0.13,1.11-0.38,1.48    c-0.25,0.37-0.63,0.69-1.14,0.96l1.35,2.54c0.29,0.57,0.7,0.82,1.22,0.75l0.04,0.42c-0.31,0.1-0.65,0.09-1.06,0.09    c-0.73,0-1.31-0.28-1.71-1.02l-1.18-2.18c-0.08-0.16-0.22-0.26-0.41-0.3c-0.19-0.05-0.47-0.07-0.83-0.07v2.58    c0,0.2,0.05,0.34,0.16,0.43c0.11,0.09,0.29,0.14,0.55,0.14h0.19c0.07,0,0.1,0.04,0.1,0.12v0.3c0,0.01,0,0.01-0.01,0.01h-3.59    c-0.01,0-0.01,0-0.01-0.01v-0.3c0-0.08,0.03-0.11,0.1-0.12h0.19c0.48,0,0.72-0.19,0.72-0.57v-6.25c0-0.2-0.03-0.35-0.08-0.44    c-0.05-0.1-0.16-0.14-0.31-0.14h-0.09l-0.39,0.04c-0.07,0.01-0.11-0.03-0.11-0.09v-0.6h3.58c0.87,0,1.61,0.19,2.21,0.56    C127.26,32.44,127.56,32.99,127.56,33.74z M125.96,33.92c0-0.61-0.14-1.07-0.41-1.39c-0.27-0.32-0.62-0.48-1.04-0.48    c-0.38,0-0.73,0.03-1.06,0.09v3.67h0.64c0.64,0,1.11-0.15,1.41-0.46C125.81,35.05,125.96,34.57,125.96,33.92z M133.04,31.86    c0.04,0.54,0.14,1.19,0.28,1.93l-0.54,0.06c-0.15-0.53-0.36-0.98-0.63-1.32c-0.27-0.35-0.66-0.52-1.16-0.52    c-0.41,0-0.71,0.12-0.9,0.36c-0.19,0.24-0.28,0.55-0.28,0.94c0,0.36,0.17,0.7,0.52,1c0.35,0.3,0.7,0.52,1.06,0.64    c1.63,0.55,2.44,1.41,2.44,2.59c0,0.81-0.24,1.42-0.73,1.83c-0.49,0.41-1.13,0.61-1.93,0.61c-0.51,0-0.94-0.03-1.29-0.09    c-0.35-0.06-0.77,0.09-1.13,0.09c-0.02-0.37-0.14-1.23-0.29-2.33l0.52-0.04c0.13,0.57,0.37,1.02,0.72,1.36    c0.35,0.34,0.75,0.51,1.2,0.51c1,0,1.49-0.48,1.49-1.45c0-0.38-0.1-0.72-0.3-1.02c-0.2-0.3-0.5-0.52-0.89-0.67    c-1.76-0.66-2.64-1.54-2.64-2.63c0-0.7,0.25-1.25,0.74-1.63c0.85-0.66,2-0.69,3.01-0.41C132.69,31.78,132.94,31.84,133.04,31.86z     M136.5,38.99c0,0.38,0.24,0.58,0.71,0.58h0.19c0.07,0,0.1,0.04,0.1,0.12v0.3l0,0h-3.61l0,0v-0.3c0-0.08,0.04-0.12,0.1-0.12h0.19    c0.26,0,0.44-0.04,0.56-0.13c0.11-0.09,0.17-0.23,0.17-0.45v-6.47c0-0.21-0.06-0.36-0.16-0.45c-0.11-0.09-0.29-0.13-0.56-0.13    h-0.19c-0.07,0-0.1-0.04-0.1-0.11v-0.31l0.01-0.01h0.69c0.49,0.01,0.86,0.02,1.1,0.01l0.89-0.01h0.9l0.01,0.01v0.31    c0,0.07-0.03,0.11-0.1,0.11h-0.19c-0.48,0-0.71,0.19-0.71,0.58V38.99z M137.99,39.99l-0.03-0.03v-0.3c0-0.08,0.04-0.12,0.1-0.12    h0.19c0.26,0,0.44-0.04,0.56-0.13c0.11-0.09,0.17-0.24,0.17-0.44v-6.44c0-0.21-0.06-0.36-0.16-0.44c-0.11-0.09-0.3-0.13-0.56-0.13    h-0.19c-0.07,0-0.1-0.04-0.1-0.11v-0.31l0.03-0.03h3.88c1.32,0,2.44,0.43,3.36,1.29c0.92,0.86,1.38,1.91,1.38,3.13    c0,0.62-0.09,1.17-0.28,1.66c-0.19,0.49-0.43,0.88-0.74,1.17c-0.3,0.29-0.66,0.54-1.06,0.73c-0.4,0.19-0.81,0.32-1.2,0.4    c-0.39,0.07-0.8,0.1-1.22,0.1H137.99z M140.57,38.97c0,0.19,0.07,0.31,0.19,0.37c0.13,0.06,0.45,0.09,0.95,0.09    c0.45,0,0.86-0.05,1.21-0.14c0.36-0.1,0.69-0.25,0.99-0.48c0.31-0.23,0.54-0.55,0.71-0.99c0.16-0.43,0.25-0.96,0.25-1.58    c0-0.41-0.04-0.8-0.11-1.19c-0.07-0.39-0.2-0.77-0.37-1.13c-0.17-0.37-0.39-0.69-0.66-0.97c-0.26-0.27-0.59-0.49-1-0.66    c-0.4-0.17-0.86-0.25-1.35-0.25c-0.28,0-0.49,0.03-0.62,0.08c-0.13,0.06-0.19,0.18-0.19,0.37V38.97z M149.12,36.21h1.97L150,33.24    l-1.13,2.81c0,0.06,0.01,0.1,0.04,0.12C148.94,36.19,149.01,36.21,149.12,36.21z M157.34,38.99c0,0.19,0.07,0.32,0.2,0.37    c0.13,0.06,0.45,0.09,0.95,0.09c0.45,0,0.86-0.05,1.21-0.14c0.36-0.1,0.69-0.25,1-0.48c0.31-0.23,0.54-0.56,0.71-0.99    c0.16-0.43,0.25-0.96,0.25-1.58c0-0.41-0.04-0.81-0.11-1.19c-0.07-0.39-0.2-0.77-0.37-1.14c-0.17-0.37-0.39-0.69-0.66-0.97    c-0.26-0.27-0.59-0.49-1-0.66c-0.4-0.17-0.85-0.25-1.35-0.25c-0.28,0-0.49,0.03-0.62,0.09c-0.13,0.06-0.2,0.18-0.2,0.37V38.99z     M139.11,44.53l0.57,6.47c0.01,0.2,0.08,0.35,0.18,0.44c0.1,0.09,0.24,0.14,0.33,0.14h0.19c0.07,0,0.1,0.04,0.1,0.12V52l0,0h-1.39    c-0.07,0-0.14,0-0.19,0l-0.05,0h-1.58l0,0v-0.3c0-0.08,0.03-0.12,0.11-0.12h0.18c0.26,0,0.44-0.04,0.54-0.13    c0.1-0.09,0.14-0.24,0.12-0.45l-0.41-4.85l-2.24,5.49c-0.1,0.25-0.13,0.36-0.5,0.36c-0.4,0-0.39-0.09-0.5-0.35    c-0.93-2.25-1.7-4.1-2.32-5.55l-0.28,4.9c-0.02,0.21,0.03,0.36,0.13,0.45c0.1,0.09,0.29,0.13,0.56,0.13h0.18    c0.07,0,0.11,0.04,0.11,0.12V52l0,0h-1.26c-0.07,0-0.13,0-0.18,0l-0.04,0h-1.37l0,0v-0.3c0-0.08,0.04-0.12,0.11-0.12h0.13    c0.52,0,0.8-0.19,0.83-0.58l0.36-6.47c0.01-0.21-0.02-0.36-0.1-0.44c-0.07-0.08-0.24-0.12-0.49-0.12h-0.18    c-0.08,0-0.12-0.04-0.12-0.11v-0.32l0.03-0.01h2.22l2.69,6.41c0.28-0.7,0.7-1.77,1.26-3.22c0.56-1.45,0.97-2.51,1.23-3.18h2.04    l0.03,0.01v0.32c0,0.07-0.04,0.11-0.11,0.11h-0.18C139.31,43.96,139.07,44.15,139.11,44.53z M93.65,44.53    c0-0.21-0.06-0.35-0.17-0.44c-0.11-0.09-0.3-0.13-0.55-0.13h-0.18c-0.08,0-0.12-0.04-0.12-0.11v-0.32l0.02-0.01h2.93l0.03,0.01    v0.32c0,0.07-0.03,0.11-0.1,0.11h-0.19c-0.48,0-0.72,0.19-0.71,0.57v3.55c0,0.5-0.02,0.93-0.07,1.3c-0.05,0.36-0.15,0.72-0.3,1.07    c-0.15,0.35-0.35,0.63-0.59,0.85c-0.24,0.22-0.57,0.39-0.98,0.52C92.25,51.93,91.75,52,91.19,52c-0.35,0-0.7-0.05-1.05-0.16    c-0.35-0.11-0.7-0.27-1.05-0.5c-0.35-0.23-0.63-0.56-0.84-1c-0.22-0.44-0.33-0.94-0.33-1.52v-4.3c0-0.21-0.06-0.35-0.17-0.44    c-0.11-0.09-0.29-0.13-0.55-0.13h-0.18c-0.08,0-0.12-0.04-0.12-0.11v-0.32l0.03-0.01h3.57l0.04,0.01v0.32    c0,0.07-0.04,0.11-0.11,0.11h-0.18c-0.48,0-0.72,0.19-0.72,0.57v3.87c0,0.39,0.01,0.69,0.02,0.91c0.01,0.22,0.07,0.49,0.16,0.8    c0.1,0.31,0.24,0.56,0.42,0.75c0.45,0.42,0.89,0.63,1.34,0.64c0.37,0,0.69-0.07,0.97-0.21c0.28-0.14,0.49-0.31,0.64-0.51    c0.15-0.2,0.27-0.45,0.36-0.76c0.09-0.3,0.15-0.59,0.18-0.85c0.03-0.26,0.04-0.55,0.04-0.87V44.53z M142.36,50.96    c-0.11,0.19-0.12,0.34-0.04,0.45c0.08,0.1,0.3,0.16,0.66,0.16c0.18,0,0.28,0.04,0.28,0.13v0.26c0,0.02-0.01,0.04-0.05,0.04h-2.68    c-0.02,0-0.03-0.01-0.03-0.03V51.7c0-0.08,0.09-0.13,0.26-0.13c0.15,0,0.25-0.06,0.42-0.2c0.17-0.13,0.3-0.32,0.4-0.56l2.83-6.8    c0.13-0.32,0.31-0.49,0.65-0.49c0.35,0,0.54,0.12,0.67,0.47l2.57,6.82c0.1,0.26,0.2,0.45,0.31,0.58c0.1,0.12,0.23,0.18,0.39,0.18    h0.37c0.1,0,0.15,0.01,0.17,0.02c0.02,0.02,0.02,0.05,0.02,0.11v0.26c0,0.03-0.01,0.04-0.04,0.04h-3.73    c-0.04,0-0.05-0.01-0.05-0.05V51.7c0-0.08,0.11-0.13,0.35-0.13h0.35c0.22,0,0.33-0.11,0.33-0.34c0-0.1-0.01-0.16-0.02-0.19    l-0.81-2.22h-2.42c-0.14,0-0.23,0.01-0.28,0.03c-0.05,0.02-0.09,0.07-0.12,0.15L142.36,50.96z M143.74,48.22h1.97l-1.09-2.97    l-1.13,2.81c0,0.06,0.01,0.1,0.04,0.12C143.55,48.2,143.63,48.22,143.74,48.22z M80.89,50.96c-0.11,0.19-0.12,0.34-0.04,0.45    c0.08,0.1,0.3,0.16,0.66,0.16c0.18,0,0.28,0.04,0.28,0.13v0.26c0,0.02-0.01,0.04-0.05,0.04H79c-0.02,0-0.03-0.01-0.03-0.03V51.7    c0-0.08,0.09-0.13,0.26-0.13c0.15,0,0.31-0.07,0.47-0.2c0.17-0.13,0.3-0.32,0.4-0.56l2.83-6.8c0.13-0.32,0.31-0.49,0.65-0.49    c0.35,0,0.54,0.12,0.67,0.47l2.57,6.82c0.1,0.26,0.2,0.45,0.31,0.58c0.1,0.12,0.23,0.18,0.39,0.18h0.37c0.1,0,0.16,0.01,0.17,0.02    c0.01,0.02,0.02,0.05,0.02,0.11v0.26c0,0.03-0.01,0.04-0.04,0.04h-3.73c-0.04,0-0.05-0.01-0.05-0.05V51.7    c0-0.08,0.11-0.13,0.35-0.13h0.35c0.22,0,0.33-0.11,0.33-0.34c0-0.1-0.01-0.16-0.02-0.19l-0.81-2.22h-2.42    c-0.14,0-0.23,0.01-0.28,0.03c-0.05,0.02-0.09,0.07-0.12,0.15L80.89,50.96z M82.27,48.22h1.97l-1.09-2.97l-1.13,2.81    c0,0.06,0.01,0.1,0.04,0.12C82.09,48.2,82.16,48.22,82.27,48.22z M103.13,43.52c0.06,0.57,0.15,1.12,0.27,1.67l-0.52,0.06    c-0.12-0.51-0.25-0.81-0.39-0.93c-0.14-0.12-0.39-0.18-0.77-0.18h-0.7c-0.23,0-0.4,0.04-0.49,0.12c-0.09,0.08-0.14,0.22-0.14,0.43    V51c0,0.2,0.05,0.35,0.16,0.44c0.11,0.09,0.3,0.14,0.56,0.14h0.34c0.07,0,0.11,0.04,0.11,0.12V52l0,0h-3.92v0v-0.3    c0-0.08,0.03-0.12,0.11-0.12h0.33c0.48,0,0.72-0.19,0.72-0.58v-6.34c0-0.19-0.05-0.33-0.14-0.4c-0.09-0.07-0.26-0.11-0.5-0.11    h-0.69c-0.38,0-0.63,0.06-0.77,0.18c-0.14,0.12-0.27,0.42-0.4,0.93l-0.51-0.06c0.12-0.55,0.2-1.1,0.26-1.67H103.13z M109.17,41.47    l0.81,0.68l-1.89,0.76c-0.25,0.1-0.43,0.16-0.56,0.15c-0.12,0-0.19-0.06-0.19-0.19c0-0.1,0.07-0.19,0.2-0.28L109.17,41.47z     M112,47.71c0,1.27-0.39,2.31-1.18,3.1c-0.78,0.79-1.83,1.19-3.15,1.19c-1.23,0-2.25-0.37-3.07-1.11    c-0.82-0.74-1.23-1.72-1.23-2.94c0-1.26,0.4-2.31,1.22-3.15c0.81-0.85,1.83-1.27,3.07-1.27c1.2,0,2.22,0.39,3.07,1.17    C111.57,45.47,112,46.48,112,47.71z M107.51,44.05c-0.63,0-1.18,0.31-1.67,0.93c-0.48,0.62-0.73,1.54-0.73,2.74    c0,1.16,0.27,2.08,0.81,2.76c0.54,0.68,1.21,1.02,2.01,1.02c0.68,0,1.24-0.32,1.68-0.96c0.44-0.64,0.65-1.5,0.65-2.59    c0-1.24-0.26-2.2-0.79-2.88C108.95,44.39,108.29,44.05,107.51,44.05z M119.1,44.54c0-0.21-0.06-0.36-0.16-0.44    c-0.11-0.09-0.29-0.13-0.54-0.13h-0.19c-0.08,0-0.11-0.04-0.11-0.11v-0.32l0.02-0.01c0.59,0.01,1.06,0.01,1.4,0.01l1.4-0.01    l0.03,0.01v0.32c0,0.07-0.04,0.11-0.1,0.11h-0.19c-0.48,0-0.72,0.19-0.72,0.58v6.94v0.09c0,0.36-0.07,0.43-0.5,0.43    c-0.51,0-0.58-0.16-0.79-0.43l-4.42-5.73V51c0,0.38,0.24,0.57,0.72,0.57h0.19c0.07,0,0.1,0.04,0.1,0.12V52l0,0h-2.94l0,0v-0.3    c0-0.08,0.04-0.12,0.11-0.12h0.18c0.54,0,0.82-0.19,0.82-0.57v-6.35c-0.11-0.15-0.19-0.26-0.25-0.34    c-0.06-0.08-0.16-0.16-0.28-0.23c-0.12-0.08-0.25-0.12-0.38-0.12c-0.17,0-0.26-0.05-0.26-0.15v-0.26l0.04-0.04h1.89l4.93,6.28    V44.54z M125.34,44.05c-0.63,0-1.18,0.31-1.67,0.93c-0.49,0.62-0.73,1.54-0.73,2.74c0,1.16,0.27,2.08,0.81,2.76    c0.54,0.68,1.21,1.02,2.01,1.02c0.68,0,1.24-0.32,1.68-0.96c0.44-0.64,0.65-1.5,0.65-2.59c0-1.24-0.26-2.2-0.79-2.88    C126.77,44.39,126.12,44.05,125.34,44.05z M129.83,47.71c0,1.27-0.39,2.31-1.18,3.1c-0.79,0.79-1.84,1.19-3.15,1.19    c-1.23,0-2.25-0.37-3.07-1.11c-0.82-0.74-1.23-1.72-1.23-2.94c0-1.26,0.41-2.31,1.22-3.15c0.81-0.85,1.83-1.27,3.07-1.27    c1.2,0,2.22,0.39,3.07,1.17C129.4,45.47,129.83,46.48,129.83,47.71z M161.56,52l-0.04-0.03v-0.3c0-0.08,0.04-0.12,0.11-0.12h0.18    c0.26,0,0.45-0.04,0.56-0.13c0.11-0.09,0.17-0.24,0.17-0.44v-6.44c0-0.21-0.05-0.36-0.17-0.44c-0.11-0.09-0.3-0.13-0.57-0.13    h-0.18c-0.07,0-0.1-0.04-0.11-0.11v-0.31l0.04-0.03h6.13c0.05,0.74,0.14,1.45,0.27,2.13l-0.52,0.11c-0.3-1.09-0.77-1.64-1.4-1.64    h-1.72c-0.12,0-0.18,0.13-0.18,0.38v2.7h1.49c0.08,0,0.14-0.02,0.2-0.06c0.05-0.04,0.1-0.11,0.13-0.22    c0.04-0.11,0.06-0.2,0.07-0.28c0.01-0.07,0.03-0.2,0.06-0.38c0-0.03,0.02-0.07,0.06-0.1c0.04-0.03,0.09-0.05,0.16-0.05h0.28    l0.08,0.13c-0.06,0.49-0.09,0.9-0.09,1.22c0,0.3,0.03,0.71,0.09,1.22l-0.08,0.12h-0.28c-0.14,0-0.21-0.04-0.21-0.13    c-0.03-0.18-0.05-0.3-0.06-0.38c-0.01-0.08-0.04-0.17-0.07-0.28c-0.03-0.1-0.08-0.18-0.13-0.22c-0.05-0.04-0.12-0.06-0.2-0.06    h-1.49v3.25c0,0.25,0.06,0.38,0.18,0.38h2.02c0.34,0,0.63-0.16,0.88-0.49c0.24-0.33,0.42-0.75,0.55-1.26l0.56,0.14    c-0.14,0.75-0.26,1.49-0.35,2.22H161.56z M152.65,52l-0.03-0.03v-0.3c0-0.08,0.03-0.12,0.1-0.12h0.19c0.26,0,0.44-0.04,0.56-0.13    c0.11-0.09,0.17-0.24,0.17-0.44v-6.44c0-0.21-0.05-0.36-0.16-0.44c-0.11-0.09-0.3-0.13-0.56-0.13h-0.19c-0.07,0-0.1-0.04-0.1-0.11    v-0.31l0.03-0.03h3.88c1.32,0,2.44,0.43,3.36,1.29c0.92,0.86,1.38,1.91,1.38,3.13c0,0.62-0.09,1.17-0.28,1.66    c-0.19,0.49-0.43,0.88-0.74,1.17c-0.3,0.29-0.66,0.54-1.06,0.73c-0.4,0.19-0.8,0.32-1.2,0.4c-0.39,0.07-0.8,0.1-1.22,0.1H152.65z     M155.24,51c0,0.19,0.07,0.31,0.19,0.37c0.13,0.06,0.45,0.08,0.95,0.08c0.45,0,0.86-0.05,1.21-0.14c0.36-0.1,0.69-0.26,0.99-0.48    c0.31-0.23,0.54-0.56,0.71-0.99c0.16-0.43,0.25-0.96,0.25-1.58c0-0.41-0.04-0.81-0.11-1.19c-0.07-0.39-0.2-0.77-0.37-1.14    c-0.17-0.37-0.39-0.69-0.66-0.97c-0.26-0.27-0.59-0.49-1-0.66c-0.4-0.17-0.85-0.25-1.35-0.25c-0.28,0-0.49,0.03-0.62,0.09    c-0.13,0.06-0.19,0.18-0.19,0.37V51z M102.23,24.04c-0.28,0.51-0.31,0.91-0.11,1.18c0.21,0.28,0.78,0.42,1.71,0.42    c0.48,0,0.72,0.12,0.72,0.35v0.69c0,0.04-0.02,0.06-0.07,0.06h-7.2c-0.04,0-0.05-0.01-0.05-0.03v-0.72c0-0.23,0.23-0.34,0.68-0.35    c0.39,0,0.8-0.17,1.24-0.52c0.43-0.35,0.78-0.84,1.05-1.48l7.64-18.55c0.3-0.71,0.78-1.07,1.44-1.08c0.76,0,1.27,0.36,1.54,1.08    l6.92,18.55c0.26,0.69,0.52,1.19,0.8,1.52c0.27,0.32,0.61,0.48,1.01,0.48h0.97c0.26,0,0.41,0.02,0.44,0.06    c0.04,0.04,0.06,0.14,0.06,0.29v0.69c0,0.04-0.03,0.06-0.08,0.06h-9.77c-0.09,0.01-0.11-0.02-0.11-0.1v-0.66    c0-0.23,0.3-0.34,0.9-0.35h0.92c0.57,0,0.85-0.3,0.85-0.9c0-0.26-0.02-0.43-0.06-0.49l-2.12-5.84h-6.31    c-0.37,0-0.61,0.03-0.74,0.09c-0.12,0.06-0.23,0.2-0.32,0.4L102.23,24.04z M105.83,16.81h5.13l-2.84-7.82l-2.94,7.42    c0,0.16,0.03,0.27,0.1,0.32C105.34,16.78,105.53,16.81,105.83,16.81z M135.85,17.15h5.2c0.04-0.04,0.07-0.16,0.07-0.35    c0-1.19-0.23-2.07-0.7-2.64c-0.47-0.57-0.97-0.85-1.51-0.85c-0.21,0-0.45,0.05-0.71,0.15c-0.26,0.09-0.56,0.27-0.88,0.51    c-0.33,0.24-0.63,0.64-0.9,1.19C136.15,15.68,135.96,16.36,135.85,17.15z M128.14,15.23c-0.84-1.29-1.7-1.93-2.57-1.93    c-0.87,0-1.64,0.45-2.32,1.35c-0.68,0.9-1.02,2.41-1.02,4.51c0,1.96,0.32,3.45,0.94,4.46c0.63,1.01,1.44,1.51,2.43,1.51    c0.66,0,1.51-0.49,2.54-1.47V15.23z M131.73,7.76v14.9c0,0.54,0.15,0.96,0.44,1.26c0.22,0.22,0.59,0.39,1.09,0.49    c-0.92-1.21-1.38-2.7-1.38-4.46c0-2.37,0.72-4.3,2.16-5.79c1.43-1.49,3.08-2.23,4.91-2.23c2.19,0,3.74,0.56,4.64,1.67    c0.9,1.11,1.35,2.5,1.35,4.15c0,0.45-0.42,0.67-1.28,0.67h-7.96v0.84c0,1.61,0.42,2.96,1.27,4.03c0.84,1.08,1.89,1.61,3.16,1.61    c1.32,0,2.55-0.68,3.68-2.06l0.82,0.68c-1.05,2.14-2.98,3.21-5.78,3.2c-2.2,0-3.87-0.56-5.03-1.69l0.03,0.48    c-1.68,0.18-3.16,0.58-4.43,1.2h-1.29l0-1.38c-0.6,0.5-1.13,0.86-1.6,1.06c-0.48,0.21-1.07,0.32-1.74,0.32    c-1.79,0-3.29-0.67-4.53-2c-1.24-1.34-1.86-3.01-1.86-5.02c0-2.41,0.75-4.36,2.23-5.83c1.42-1.31,3.22-1.96,5.39-1.96    c0.28,0,0.65,0.08,1.11,0.24c0.45,0.16,0.78,0.35,1,0.57V8.4c0-1-0.07-1.64-0.21-1.94c-0.14-0.3-0.4-0.42-0.76-0.45l-1.04-0.07    c-0.12-0.01-0.18-0.05-0.19-0.16l-0.09-0.95c0.81-0.07,1.83-0.18,3.06-0.35c1.24-0.17,2.04-0.34,2.41-0.49    c0.35,0,0.53,0.11,0.51,0.33C131.76,5.2,131.73,6.34,131.73,7.76z M168.33,15.2c0,3.34-1,6.06-3,8.18    c-2.14,2.25-4.98,3.37-8.53,3.36c-3.09,0-5.76-1-8.02-2.99c-2.25-2-3.38-4.61-3.38-7.86c0-3.19,0.94-5.88,2.83-8.06    c1.03-1.2,2.28-2.13,3.75-2.81c1.47-0.67,3.06-1.02,4.78-1.02c3.26,0,6,1.04,8.23,3.11C167.22,9.19,168.33,11.89,168.33,15.2z     M156.35,5.36c-1.73,0-3.14,0.81-4.24,2.43c-1.1,1.62-1.65,4.09-1.65,7.4c0,3.14,0.67,5.62,2,7.44c1.34,1.82,3.03,2.73,5.08,2.73    c1.81,0,3.23-0.86,4.24-2.57c1.02-1.71,1.52-4.01,1.52-6.89c0-3.36-0.65-5.96-1.95-7.8C160.04,6.28,158.37,5.36,156.35,5.36z     M86.27,8.27v8.82c0,0.98,0.02,1.78,0.07,2.4c0.04,0.61,0.19,1.33,0.46,2.14c0.26,0.81,0.65,1.48,1.16,1.99    c1.14,1.16,2.45,1.74,3.93,1.74c1.07,0,2-0.18,2.77-0.54c0.78-0.35,1.37-0.79,1.79-1.32c0.42-0.52,0.75-1.19,0.99-2.01    c0.24-0.82,0.39-1.57,0.44-2.25c0.06-0.68,0.08-1.49,0.08-2.42V8.27c0-0.75-0.03-1.31-0.1-1.7c-0.06-0.38-0.24-0.67-0.53-0.89    c-0.29-0.21-0.58-0.34-0.86-0.4c-0.28-0.05-0.8-0.11-1.55-0.19c-0.1-0.11-0.16-0.31-0.16-0.59c0-0.22,0.03-0.39,0.1-0.51h7.83    c0.07,0.12,0.1,0.28,0.1,0.5c0,0.27-0.06,0.48-0.16,0.6c-0.79,0.09-1.31,0.19-1.58,0.29c-0.27,0.1-0.49,0.37-0.67,0.8    c-0.18,0.43-0.26,1.12-0.26,2.08v7.92c0,3.33-0.69,5.92-2.06,7.77c-1.38,1.86-3.66,2.79-6.85,2.79c-3.02,0-5.24-0.49-6.67-1.45    c-1.91-1.31-2.87-3.67-2.87-7.04V8.27c0-1.37-0.16-2.24-0.47-2.58c-0.32-0.35-1.01-0.54-2.07-0.59c-0.08-0.11-0.13-0.31-0.13-0.59    c0-0.22,0.03-0.39,0.08-0.51h10.31c0.07,0.12,0.1,0.28,0.11,0.5c0.01,0.27-0.06,0.48-0.17,0.6c-1.32,0.05-2.16,0.24-2.51,0.57    C86.45,6,86.27,6.87,86.27,8.27z M69.55,4.39C69.55,4.17,69.7,4,69.87,4c0.18,0,0.32,0.17,0.32,0.39v59.22    c0,0.21-0.14,0.39-0.32,0.39c-0.18,0-0.32-0.17-0.32-0.39V4.39z"/>
	</g>
</g>
</svg>